<?xml version="1.0" standalone="no"?>
<!DOCTYPE svg PUBLIC "-//W3C//DTD SVG 20010904//EN"
 "http://www.w3.org/TR/2001/REC-SVG-20010904/DTD/svg10.dtd">
<svg version="1.0" xmlns="http://www.w3.org/2000/svg"
 width="300.000000pt" height="300.000000pt" viewBox="0 0 300.000000 300.000000"
 preserveAspectRatio="xMidYMid meet">
<metadata>
Created by potrace 1.14, written by Peter Selinger 2001-2017
</metadata>
<g transform="translate(0.000000,300.000000) scale(0.100000,-0.100000)"
fill="#000000" stroke="none">
<path d="M1700 2710 c-476 -159 -1022 -342 -1213 -406 -432 -144 -412 -126
-351 -315 l27 -81 -22 -26 c-101 -125 -85 -299 38 -404 l41 -35 0 -690 0 -690
25 -29 25 -29 1290 -3 c1426 -2 1338 -6 1358 60 7 21 10 333 10 851 l0 817
-1142 0 -1142 0 -13 50 c-7 27 -17 52 -22 56 -5 3 -9 9 -9 14 0 4 489 171
1088 370 598 200 1090 366 1094 369 11 10 -109 362 -130 383 -43 42 -41 43
-952 -262z m597 -48 c-19 -73 -36 -134 -38 -136 -4 -3 -278 -96 -283 -96 -2 0
10 51 25 113 16 61 29 119 29 127 0 8 4 21 9 28 9 15 285 112 289 102 1 -3
-13 -66 -31 -138z m-720 -247 l-33 -129 -124 -42 c-69 -23 -134 -45 -145 -48
-20 -5 -20 0 13 132 19 75 36 139 37 140 12 13 280 95 282 87 2 -5 -12 -68
-30 -140z m-686 -113 c-5 -9 -9 -20 -9 -25 0 -4 -12 -58 -28 -120 l-27 -112
-141 -47 c-78 -25 -143 -45 -145 -43 -2 3 4 31 35 154 2 9 9 39 16 66 6 28 13
51 14 53 6 8 280 99 287 95 4 -2 3 -12 -2 -21z m-465 -477 c61 -25 92 -115 65
-187 -13 -35 -71 -78 -114 -85 -25 -4 -49 1 -79 16 -116 56 -107 222 14 264
44 15 59 14 114 -8z m609 -177 c3 -3 -4 -21 -17 -40 -13 -19 -45 -71 -73 -116
l-50 -81 -153 -1 -154 0 23 38 c12 20 42 67 66 104 24 37 46 74 49 82 3 8 15
16 27 18 38 5 276 2 282 -4z m765 3 c0 -4 -87 -143 -128 -203 l-25 -38 -149 0
c-84 0 -148 4 -146 9 2 5 34 59 73 120 46 73 76 111 90 113 31 5 285 4 285 -1z
m733 -41 c-15 -25 -49 -80 -77 -122 l-51 -78 -153 0 -152 0 24 38 c14 20 44
68 67 106 64 106 52 101 221 101 l147 0 -26 -45z m-996 -567 c60 -36 119 -74
133 -83 14 -10 68 -44 120 -76 52 -33 106 -67 120 -77 24 -18 24 -19 7 -30
-10 -7 -44 -28 -75 -48 -140 -90 -412 -259 -416 -259 -3 0 -5 144 -5 320 0
176 2 320 4 320 2 0 53 -30 112 -67z"/>
</g>
</svg>
